<?xml version="1.0" encoding="UTF-8"?><svg id="Layer_1" xmlns="http://www.w3.org/2000/svg" viewBox="0 0 332.66 332.66"><defs><style>.cls-1{fill:#b2de3a;}</style></defs><rect x="0" y="0" width="332.66" height="332.66" rx="13.82" ry="13.82"/><path class="cls-1" d="M286.31,98.87v44.31c0,15.54-12.6,28.13-28.13,28.13h-11.85v-62.93c0-16.38-13.28-29.66-29.66-29.66H46.35v-39.99h179.83c33.21,0,60.12,26.92,60.12,60.12Z"/><path class="cls-1" d="M286.31,253.92v40s-83.16,0-83.16,0c-28.18,0-54.9-12.53-72.92-34.2l-43.89-52.79v86.99s-39.99,0-39.99,0v-159.97h140.83c11.04,0,19.99,8.95,19.99,19.99h0c0,11.04-8.95,19.99-19.99,19.99h-73.28s45.08,54.24,45.08,54.24c13.55,16.31,33.65,25.74,54.86,25.74h72.47Z"/></svg>