<?xml version="1.0" encoding="UTF-8"?><svg id="Layer_1" xmlns="http://www.w3.org/2000/svg" viewBox="0 0 475.05 121.57"><defs><style>.cls-1{fill:#b2de3a;}</style></defs><rect y="0" width="475.05" height="122.17"/><path class="cls-1" d="M113.27,86.4c-1.42-.88-2.56-2.02-3.44-3.44-.88-1.41-1.32-3-1.32-4.75v-23.4c0-1.76.44-3.34,1.32-4.75.88-1.41,2.02-2.56,3.44-3.44,1.41-.88,3-1.32,4.75-1.32h24.13c1.75,0,3.35.43,4.79,1.28,1.44.85,2.58,2.01,3.44,3.47.85,1.46,1.28,3.05,1.28,4.75v15.65h-35.25v7.53c0,.49.18.91.55,1.28.37.37.79.55,1.28.55h33.42v7.9h-33.64c-1.76,0-3.34-.44-4.75-1.32ZM116.41,63.07h27.28v-8.04c0-.49-.17-.91-.51-1.28-.34-.37-.76-.55-1.24-.55h-23.7c-.49,0-.91.18-1.28.55-.37.37-.55.79-.55,1.28v8.04Z"/><path class="cls-1" d="M159.34,87.71v-42.42h33.64c1.76,0,3.35.44,4.79,1.32,1.44.88,2.58,2.02,3.44,3.44.85,1.41,1.28,3,1.28,4.75v32.91h-7.9v-32.69c0-.49-.18-.91-.55-1.28-.37-.37-.79-.55-1.28-.55h-23.7c-.49,0-.91.18-1.28.55-.37.37-.55.79-.55,1.28v32.69h-7.9Z"/><path class="cls-1" d="M213.97,86.4c-1.42-.88-2.56-2.02-3.44-3.44-.88-1.41-1.32-3-1.32-4.75v-23.4c0-1.76.44-3.34,1.32-4.75.88-1.41,2.02-2.56,3.44-3.44,1.41-.88,3-1.32,4.75-1.32h24.13c1.75,0,3.35.43,4.79,1.28,1.44.85,2.58,2.01,3.44,3.47.85,1.46,1.28,3.05,1.28,4.75v15.65h-35.25v7.53c0,.49.18.91.55,1.28.37.37.79.55,1.28.55h33.42v7.9h-33.64c-1.76,0-3.34-.44-4.75-1.32ZM217.12,63.07h27.28v-8.04c0-.49-.17-.91-.51-1.28-.34-.37-.76-.55-1.24-.55h-23.7c-.49,0-.91.18-1.28.55-.37.37-.55.79-.55,1.28v8.04Z"/><path class="cls-1" d="M264.07,86.4c-1.42-.88-2.56-2.02-3.44-3.44-.88-1.41-1.32-3-1.32-4.75v-23.4c0-1.76.44-3.34,1.32-4.75.88-1.41,2.02-2.56,3.44-3.44,1.41-.88,3-1.32,4.75-1.32h24.13c1.75,0,3.35.43,4.79,1.28,1.44.85,2.58,2.01,3.44,3.47.85,1.46,1.28,3.05,1.28,4.75v23.4c0,1.76-.43,3.34-1.28,4.75-.85,1.41-2,2.56-3.44,3.44-1.44.88-3.04,1.32-4.79,1.32h-24.13c-1.76,0-3.34-.44-4.75-1.32ZM269.04,79.82h23.7c.49,0,.9-.18,1.24-.55.34-.37.51-.79.51-1.28v-22.96c0-.49-.17-.91-.51-1.28-.34-.37-.76-.55-1.24-.55h-23.7c-.49,0-.91.18-1.28.55-.37.37-.55.79-.55,1.28v22.96c0,.49.18.91.55,1.28.37.37.79.55,1.28.55Z"/><path class="cls-1" d="M308.68,87.71v-42.42h33.64c1.76,0,3.35.44,4.79,1.32,1.44.88,2.58,2.02,3.44,3.44.85,1.41,1.28,3,1.28,4.75v32.91h-7.9v-32.69c0-.49-.18-.91-.55-1.28-.37-.37-.79-.55-1.28-.55h-23.7c-.49,0-.91.18-1.28.55-.37.37-.55.79-.55,1.28v32.69h-7.9Z"/><rect class="cls-1" x="359.43" y="45.3" width="7.9" height="42.42"/><path class="cls-1" d="M392.4,58.09l-10.32-12.13h-9.21v1.39l16.6,19.46-16.6,20.18v1.39h9.21l8.84-10.9,3.67-4.53.05.06,5.15-6.18v-.02s-7.39-8.72-7.39-8.72Z"/><path class="cls-1" d="M394.81,66.81v.02s5.14,6.18,5.14,6.18l.05-.06,3.67,4.53,8.84,10.9h9.21s0-1.39,0-1.39l-16.6-20.18,16.6-19.46v-1.39s-9.21,0-9.21,0l-10.32,12.13-7.38,8.72Z"/><path class="cls-1" d="M363.74,33.16h-2.15s-2.15,0-2.15,0v3.35s0,3.35,0,3.35h7.82v-3.19l-1.76-1.76-1.76-1.76Z"/><path class="cls-1" d="M101,49.67v8.8c0,3.09-2.5,5.59-5.59,5.59h-2.35v-12.5c0-3.25-2.64-5.89-5.89-5.89h-33.83v-7.94h35.72c6.6,0,11.94,5.35,11.94,11.94Z"/><path class="cls-1" d="M101,80.47v7.95s-16.52,0-16.52,0c-5.6,0-10.91-2.49-14.48-6.79l-8.72-10.49v17.28s-7.94,0-7.94,0v-31.78h27.97c2.19,0,3.97,1.78,3.97,3.97h0c0,2.19-1.78,3.97-3.97,3.97h-14.56s8.95,10.77,8.95,10.77c2.69,3.24,6.69,5.11,10.9,5.11h14.4Z"/></svg>